<svg xmlns="http://www.w3.org/2000/svg" viewBox="0 0 2186.04 2186.04"><defs><style>.cls-1{fill:#242424;}.cls-2{fill:#efeeee;}</style></defs><title>Asset 3Favicon2</title><g id="Layer_2" data-name="Layer 2"><g id="Layer_1-2" data-name="Layer 1"><circle class="cls-1" cx="1093.02" cy="1093.02" r="1093.02"/><path class="cls-2" d="M1544.69,1662.31H1369.76a34.56,34.56,0,0,1-28.81-15.49l-442.75-669c-18.9-28.56-63.36-15.18-63.36,19.06v630.88a34.55,34.55,0,0,1-34.55,34.55H641.36a34.55,34.55,0,0,1-34.55-34.55V558.28a34.54,34.54,0,0,1,34.55-34.54h174.9a34.53,34.53,0,0,1,28.82,15.5l442.74,670.38c18.88,28.59,63.38,15.22,63.38-19V558.28a34.54,34.54,0,0,1,34.55-34.54h158.94a34.53,34.53,0,0,1,34.54,34.54V1627.76A34.54,34.54,0,0,1,1544.69,1662.31Z"/></g></g></svg>